<?xml version="1.0" encoding="UTF-8"?>
<svg version="1.1" xmlns="http://www.w3.org/2000/svg" width="710" height="214">
<path d="M0 0 C234.3 0 468.6 0 710 0 C710 70.62 710 141.24 710 214 C475.7 214 241.4 214 0 214 C0 143.38 0 72.76 0 0 Z " fill="#FCFDFD" transform="translate(0,0)"/>
<path d="M0 0 C9.43151491 -0.13909223 18.8626762 -0.2456667 28.2949934 -0.31087303 C32.67497704 -0.34217106 37.05425843 -0.38461433 41.43383789 -0.45263672 C45.6614044 -0.51788628 49.88829605 -0.55371755 54.11632729 -0.56926346 C55.72834205 -0.58034 57.34032034 -0.60197101 58.95204735 -0.63438034 C61.21257336 -0.67802333 63.47032086 -0.6839316 65.73120117 -0.68115234 C67.01693527 -0.69447601 68.30266937 -0.70779968 69.62736511 -0.7215271 C74.33222562 0.28501066 75.37629771 2.04664757 78 6 C78 6.66 78 7.32 78 8 C78.55042969 8.22945312 79.10085937 8.45890625 79.66796875 8.6953125 C82.66952698 10.37457623 84.85213741 12.47516731 87.3125 14.875 C88.21613281 15.73867188 89.11976562 16.60234375 90.05078125 17.4921875 C92 20 92 20 92.11328125 22.13671875 C90.51890951 24.80519356 88.64803951 25.57364814 85.875 26.9375 C82.53752727 28.64924504 79.37719209 30.31085593 76.375 32.5625 C73.25348025 34.90177733 69.96986737 36.71378737 66.50390625 38.49609375 C64.27638934 39.83399393 62.30185474 41.25899291 60.2421875 42.8359375 C56.17902483 45.92715573 51.94614865 48.57903181 47.5625 51.1875 C39.21590602 56.21927648 31.02718232 61.46513713 22.86425781 66.78808594 C19.38444361 69.05023859 15.88248949 71.2771789 12.375 73.49609375 C10.78694104 74.50169029 9.20360145 75.51477735 7.625 76.53515625 C6.903125 76.99792969 6.18125 77.46070312 5.4375 77.9375 C4.81746094 78.33839844 4.19742187 78.73929687 3.55859375 79.15234375 C2 80 2 80 0 80 C0 60.53 0 41.06 0 21 C6.10987585 22.01831264 6.10987585 22.01831264 9.52734375 26.64453125 C11.95241389 28.87662498 14.55647587 28.64955517 17.734375 28.796875 C21.14844377 29.10296392 23.9127543 30.57071958 27 32 C28.28656315 32.3525183 29.57840291 32.68639217 30.875 33 C31.90625 33.33 32.9375 33.66 34 34 C34.33 34.99 34.66 35.98 35 37 C37.31 37 39.62 37 42 37 C42.33 35.02 42.66 33.04 43 31 C42.20078125 30.96261719 41.4015625 30.92523438 40.578125 30.88671875 C23.77977658 29.88118381 23.77977658 29.88118381 18 27 C15.9945026 24.48901863 14.66918506 22.11794617 13.37890625 19.1796875 C12.16382255 16.73301765 12.16382255 16.73301765 9.33984375 16.1953125 C8.56769531 16.13085938 7.79554687 16.06640625 7 16 C7 16.66 7 17.32 7 18 C5.00045254 18.04254356 2.99958364 18.04080783 1 18 C0 17 0 17 -0.09765625 13.18359375 C-0.09098089 11.60153318 -0.07901875 10.01948841 -0.0625 8.4375 C-0.05798828 7.63119141 -0.05347656 6.82488281 -0.04882812 5.99414062 C-0.03700518 3.99606244 -0.01906914 1.99802217 0 0 Z " fill="#0CCAF3" transform="translate(15,45)"/>
<path d="M0 0 C0 19.8 0 39.6 0 60 C-5.13333333 54.86666667 -5.13333333 54.86666667 -7 51 C-12.96412183 47.02391878 -20.25072958 46.3323614 -27.21484375 45.23242188 C-31.76632864 44.44483223 -35.6594128 43.3405872 -39 40 C-40.66617115 39.95936168 -42.33388095 39.957279 -44 40 C-44.93423645 43.01031744 -45.04449911 43.86650268 -44 47 C-43.19820312 46.95359375 -42.39640625 46.9071875 -41.5703125 46.859375 C-34.17361421 46.62455918 -27.57648734 47.24729669 -20.375 48.875 C-19.60559082 49.04870117 -18.83618164 49.22240234 -18.04345703 49.40136719 C-10.60845849 51.18076741 -10.60845849 51.18076741 -8 53 C-7.25 56.125 -7.25 56.125 -7 59 C-6.01 59 -5.02 59 -4 59 C-0.83001859 63.45778636 0.25665735 66.24445279 0.125 71.76171875 C0.10695313 72.74487061 0.08890625 73.72802246 0.0703125 74.7409668 C0.04710937 75.48644775 0.02390625 76.23192871 0 77 C-9.04926551 77.30275823 -18.09675991 77.5329471 -27.15000534 77.67355824 C-31.35525524 77.74108951 -35.55701389 77.83246477 -39.76025391 77.98071289 C-43.82602742 78.12319593 -47.88847143 78.19993219 -51.9565506 78.23340416 C-53.49900992 78.25721478 -55.04130994 78.30371943 -56.5823288 78.37449074 C-63.2461822 78.66802892 -69.29956166 78.86193314 -74.56408691 74.19515991 C-77.68400856 71.02487191 -80.37387641 67.58208758 -83 64 C-85.55061734 60.45391664 -85.55061734 60.45391664 -89 58 C-89 57.01 -89 56.02 -89 55 C-88.01 55 -87.02 55 -86 55 C-86 54.34 -86 53.68 -86 53 C-85.34 53 -84.68 53 -84 53 C-84 52.34 -84 51.68 -84 51 C-83.46632813 50.72027344 -82.93265625 50.44054687 -82.3828125 50.15234375 C-76.99634301 47.25408767 -72.07073064 44.00821059 -67.1640625 40.35546875 C-65 39 -65 39 -62 39 C-62 38.34 -62 37.68 -62 37 C-61.01 37 -60.02 37 -59 37 C-59 36.34 -59 35.68 -59 35 C-56.86390459 33.50787453 -54.73105442 32.15129357 -52.5 30.8125 C-51.0323126 29.91315112 -49.56488113 29.0133845 -48.09765625 28.11328125 C-47.28699707 27.61908691 -46.47633789 27.12489258 -45.64111328 26.61572266 C-40.72180151 23.60629343 -35.83022945 20.55238726 -30.9375 17.5 C-29.90979492 16.86094727 -28.88208984 16.22189453 -27.82324219 15.56347656 C-21.25921878 11.46593468 -14.77202052 7.27793917 -8.46459961 2.79296875 C-5.23554681 0.55773005 -4.08860919 0 0 0 Z " fill="#0FA8F7" transform="translate(204,93)"/>
<path d="M0 0 C0 24.42 0 48.84 0 74 C-0.66 74 -1.32 74 -2 74 C-2.495 75.485 -2.495 75.485 -3 77 C-5.24274786 78.56780484 -7.46382338 79.98273604 -9.8125 81.375 C-11.26934942 82.26118179 -12.72502273 83.14929915 -14.1796875 84.0390625 C-15.34709473 84.7511084 -15.34709473 84.7511084 -16.53808594 85.47753906 C-20.88334238 88.16466909 -25.15878412 90.95857267 -29.4375 93.75 C-30.6601355 94.54543213 -30.6601355 94.54543213 -31.9074707 95.35693359 C-35.13016619 97.45733807 -38.35005893 99.55657874 -41.52783203 101.72460938 C-42.33462402 102.27439453 -43.14141602 102.82417969 -43.97265625 103.390625 C-44.698479 103.89110352 -45.42430176 104.39158203 -46.17211914 104.90722656 C-48 106 -48 106 -50 106 C-50.1623837 96.71619704 -50.28666503 87.4328848 -50.3626852 78.1479702 C-50.39917676 73.83625409 -50.44864884 69.52551135 -50.52807617 65.21435547 C-50.60428716 61.05159612 -50.64602096 56.88977122 -50.6641407 52.72636795 C-50.67704828 51.14025792 -50.70225573 49.55419755 -50.7401104 47.96848679 C-51.02486159 35.54318725 -51.02486159 35.54318725 -48.48390198 31.71713257 C-46.71650987 30.17341915 -45.07942124 29.07140338 -43 28 C-42.16597656 27.44054687 -41.33195313 26.88109375 -40.47265625 26.3046875 C-39.67730469 25.83289063 -38.88195312 25.36109375 -38.0625 24.875 C-33.17445896 21.84266643 -28.58245285 18.52993785 -24 15.0625 C-23.31719971 14.54631104 -22.63439941 14.03012207 -21.9309082 13.49829102 C-20.58554642 12.47940928 -19.24072573 11.45981262 -17.89648438 10.43945312 C-15.18966272 8.38494482 -12.47734361 6.3397768 -9.75 4.3125 C-8.50476563 3.37857422 -8.50476563 3.37857422 -7.234375 2.42578125 C-4.89016042 0.92991006 -2.81426397 0 0 0 Z " fill="#0D88FA" transform="translate(204,10)"/>
<path d="M0 0 C0.25553016 8.98817186 0.45063883 17.97508369 0.56993389 26.9661026 C0.62720979 31.14179772 0.70479668 35.31499856 0.82983398 39.48925781 C0.94988292 43.52249877 1.0152269 47.55335132 1.04364967 51.58824158 C1.06388546 53.12269198 1.10340946 54.65701975 1.16303062 56.19044495 C1.61060187 68.18527641 1.61060187 68.18527641 -2.37388611 72.67474365 C-5.16576329 74.72766594 -7.93576753 76.39035127 -11 78 C-12.41564873 78.92656156 -13.82334558 79.86567475 -15.21484375 80.828125 C-17.09007962 82.05371866 -18.97027741 83.27111654 -20.85351562 84.484375 C-23.52339293 86.2325423 -25.84806587 87.84693834 -28.10546875 90.12109375 C-30.33859631 92.33580376 -32.55275378 93.44090415 -35.375 94.8125 C-39.9183341 97.17793759 -42.78042652 99.47510048 -45.68359375 103.6796875 C-46.11800781 104.11539063 -46.55242188 104.55109375 -47 105 C-48.32 105 -49.64 105 -51 105 C-51.4188146 95.67332914 -51.73769052 86.34993073 -51.93261909 77.01587963 C-52.02623404 72.68012189 -52.1528739 68.3508312 -52.35791016 64.01879883 C-53.65084058 35.9925863 -53.65084058 35.9925863 -49.2557373 29.37286377 C-45.09089441 25.47373461 -40.46800848 23.40813361 -35.07327271 21.71456909 C-32.33567917 20.77103681 -30.25506694 19.29224943 -28 17.5 C-22.61899092 13.61056887 -16.92958587 10.2354602 -11.2421875 6.81835938 C-10.49453125 6.36783203 -9.746875 5.91730469 -8.9765625 5.453125 C-8.30705566 5.05254883 -7.63754883 4.65197266 -6.94775391 4.23925781 C-4.92146721 2.98687737 -4.92146721 2.98687737 -2.81396484 1.34667969 C-1 0 -1 0 0 0 Z " fill="#0C87FA" transform="translate(66,100)"/>
<path d="M0 0 C0.66 0.99 1.32 1.98 2 3 C2.99 3.33 3.98 3.66 5 4 C5 4.66 5 5.32 5 6 C5.66 6 6.32 6 7 6 C8.64772007 8.3727169 9.86765311 10.33826554 10.4375 13.1875 C10.623125 13.785625 10.80875 14.38375 11 15 C11.82951172 15.36158203 11.82951172 15.36158203 12.67578125 15.73046875 C16.01902412 17.55660981 18.25288173 20.31058589 20.75 23.125 C21.81634412 24.30592078 22.88405373 25.48561 23.953125 26.6640625 C24.47197266 27.23672852 24.99082031 27.80939453 25.52539062 28.39941406 C27.45671661 30.49573412 29.46567784 32.50391697 31.5 34.5 C34.22207051 37.18804462 36.78608506 39.8636205 39 43 C39 43.66 39 44.32 39 45 C36.76953125 46.62109375 36.76953125 46.62109375 33.8125 48.4375 C32.84957031 49.03433594 31.88664062 49.63117188 30.89453125 50.24609375 C29.12986935 51.31536932 27.36129342 52.37826312 25.5859375 53.4296875 C23.53642063 54.67425817 21.52540581 55.94944667 19.51953125 57.26171875 C18.91302734 57.65810547 18.30652344 58.05449219 17.68164062 58.46289062 C16.42197257 59.28819038 15.16419351 60.11637968 13.90820312 60.94726562 C9.22132851 64 9.22132851 64 7 64 C7 64.66 7 65.32 7 66 C6.01 66 5.02 66 4 66 C3.505 67.485 3.505 67.485 3 69 C2.34 69 1.68 69 1 69 C1 69.66 1 70.32 1 71 C-1.0625 71.9375 -1.0625 71.9375 -4 72 C-6.69972975 70.01207548 -8.8086269 67.52339933 -11 65 C-11.53367188 64.39671875 -12.06734375 63.7934375 -12.6171875 63.171875 C-13.74258702 61.89031956 -14.86204229 60.60352793 -15.9765625 59.3125 C-18.48733913 56.44304099 -21.050388 53.62465574 -23.625 50.8125 C-24.08036133 50.31339111 -24.53572266 49.81428223 -25.00488281 49.30004883 C-27.14001261 46.97254058 -29.3059679 44.6949721 -31.54296875 42.46484375 C-34.85240502 39.14488463 -37.9155071 35.62708773 -41.01171875 32.109375 C-42.82350446 29.94486736 -42.82350446 29.94486736 -45 29 C-45 27.68 -45 26.36 -45 25 C-43.3828125 23.54296875 -43.3828125 23.54296875 -41.125 22.1875 C-39.87589844 21.41019531 -39.87589844 21.41019531 -38.6015625 20.6171875 C-37.31378906 19.81667969 -37.31378906 19.81667969 -36 19 C-34.492863 17.9476482 -32.99301036 16.88479954 -31.5 15.8125 C-26.79240792 12.50606525 -22.00420919 9.33179771 -17.1875 6.1875 C-16.45789063 5.70708252 -15.72828125 5.22666504 -14.9765625 4.73168945 C-4.54423925 -2.03707277 -4.54423925 -2.03707277 0 0 Z " fill="#1072F2" transform="translate(114,73)"/>
<path d="M0 0 C4.29 0 8.58 0 13 0 C15.90642821 3.06967794 17.74663835 5.40422352 19.79156494 8.96539307 C21.75129276 12.26492975 23.92276034 15.42047467 26.06271362 18.60494995 C28.64088592 22.44933236 31.17866431 26.31975876 33.71899414 30.18920898 C35.69073872 33.19243299 37.6663217 36.1931029 39.64257812 39.19335938 C40.91168161 41.12224895 42.18056931 43.05128052 43.44921875 44.98046875 C44.03265549 45.86711716 44.61609222 46.75376556 45.21720886 47.6672821 C45.77161148 48.51208633 46.3260141 49.35689056 46.8972168 50.22729492 C47.37716599 50.95800705 47.85711517 51.68871918 48.35160828 52.4415741 C50.60422827 55.93780697 52.79569235 59.47310776 55 63 C55.33 42.21 55.66 21.42 56 0 C59.96 0 63.92 0 68 0 C68 28.38 68 56.76 68 86 C64.37 86 60.74 86 57 86 C53.97235613 82.81751471 52.20183313 80.36085039 50.0625 76.625 C49.08397046 75.04152487 48.10511698 73.45823867 47.12020874 71.87872314 C46.38019315 70.68799633 45.64522668 69.4941203 44.91470337 68.29754639 C40.23869883 60.659185 35.21966772 53.24890787 30.23217773 45.81201172 C24.47093648 37.21950341 18.73848278 28.60772416 13 20 C12.67 41.78 12.34 63.56 12 86 C8.04 86 4.08 86 0 86 C0 57.62 0 29.24 0 0 Z " fill="#677278" transform="translate(252,67)"/>
<path d="M0 0 C5.36014043 4.15322139 7.15935739 10.62466338 8.25 17.0625 C8.3725969 19.35235485 8.45033264 21.64482227 8.49609375 23.9375 C8.52896484 25.25234375 8.56183594 26.5671875 8.59570312 27.921875 C8.64311894 29.99539576 8.68762065 32.06888482 8.72680664 34.14257812 C8.76667994 36.15773156 8.81874669 38.17263201 8.87109375 40.1875 C8.8961499 41.38632813 8.92120605 42.58515625 8.94702148 43.8203125 C9.24071816 46.96317455 9.9114891 49.2241473 11.25 52.0625 C12.57 52.0625 13.89 52.0625 15.25 52.0625 C15.375 57.8125 15.375 57.8125 14.25 60.0625 C8.8813549 60.33548195 5.64579322 60.48145028 1.25 57.0625 C-0.11984198 55.76670353 -1.4651049 54.44257251 -2.75 53.0625 C-3.37648438 53.48402344 -4.00296875 53.90554687 -4.6484375 54.33984375 C-5.46570313 54.88769531 -6.28296875 55.43554688 -7.125 56 C-7.93710937 56.54527344 -8.74921875 57.09054688 -9.5859375 57.65234375 C-14.92123009 61.12895137 -20.5344272 60.47889038 -26.75 60.0625 C-32.41107088 58.17547637 -35.14814943 54.94583103 -38 49.8125 C-39.40424565 44.66359927 -39.37635134 39.94155401 -37.6875 34.875 C-32.65070822 27.56352806 -26.41468191 24.47867048 -18 22.375 C-12.92122325 21.88665608 -7.84779724 21.98826023 -2.75 22.0625 C-2.97917968 20.45522673 -3.23420802 18.85162584 -3.5 17.25 C-3.63921875 16.35667969 -3.7784375 15.46335937 -3.921875 14.54296875 C-4.9743652 11.39046272 -5.7843311 10.55505796 -8.75 9.0625 C-12.27839002 8.58597664 -12.27839002 8.58597664 -16.125 8.6875 C-17.41148437 8.67976563 -18.69796875 8.67203125 -20.0234375 8.6640625 C-23.9370988 9.08250427 -26.34426214 10.16372579 -29.75 12.0625 C-30.41 12.0625 -31.07 12.0625 -31.75 12.0625 C-33.2283226 9.10585481 -32.81032783 6.32020263 -32.75 3.0625 C-23.79435402 -2.38112795 -9.7983055 -5.38999414 0 0 Z " fill="#667177" transform="translate(486.75,93.9375)"/>
<path d="M0 0 C3.63 0 7.26 0 11 0 C11.01458252 1.10923828 11.02916504 2.21847656 11.04418945 3.36132812 C11.10249336 7.50650043 11.17972237 11.65114763 11.26245117 15.79589844 C11.29555035 17.58422271 11.32362826 19.37264768 11.34643555 21.16113281 C11.38025956 23.74327199 11.43258623 26.32450076 11.48828125 28.90625 C11.49467117 29.69616333 11.5010611 30.48607666 11.50764465 31.29992676 C11.67500449 37.72729387 13.25740199 42.77031689 16.33203125 48.46875 C18.74212087 50.68129129 20.45912498 50.53306914 23.6875 50.5 C24.68136719 50.5103125 25.67523438 50.520625 26.69921875 50.53125 C30.97338789 50.012315 30.97338789 50.012315 38 46 C38.33 30.82 38.66 15.64 39 0 C42.63 0 46.26 0 50 0 C50 19.8 50 39.6 50 60 C46.7 60 43.4 60 40 60 C40 58.02 40 56.04 40 54 C39.34 54 38.68 54 38 54 C37.67 54.99 37.34 55.98 37 57 C30.43402605 61.61392764 23.81043246 61.54395916 16 61 C10.88150494 59.97630099 7.68386441 57.04513559 4.359375 53.20703125 C0.22744629 46.49858377 -0.42531057 40.49874046 -0.29296875 32.8125 C-0.28872391 31.86938965 -0.28447906 30.9262793 -0.28010559 29.95458984 C-0.2634357 26.96942482 -0.22580575 23.98495782 -0.1875 21 C-0.17243804 18.96485356 -0.15875229 16.92969645 -0.14648438 14.89453125 C-0.11357055 9.9294223 -0.06186999 4.96482913 0 0 Z " fill="#657177" transform="translate(336,93)"/>
<path d="M0 0 C0.66 0.99 1.32 1.98 2 3 C2.99 3.33 3.98 3.66 5 4 C5 4.66 5 5.32 5 6 C5.66 6 6.32 6 7 6 C8.64772007 8.3727169 9.86765311 10.33826554 10.4375 13.1875 C10.623125 13.785625 10.80875 14.38375 11 15 C11.82951172 15.36158203 11.82951172 15.36158203 12.67578125 15.73046875 C16.01893831 17.55656294 18.25313801 20.31042769 20.75 23.125 C21.81495157 24.30600086 22.88135947 25.48569012 23.94921875 26.6640625 C24.46790527 27.23672852 24.9865918 27.80939453 25.52099609 28.39941406 C28.03218828 31.11703967 30.69207731 33.67637423 33.37890625 36.21875 C35.28188095 38.30972943 36.61538798 40.54220846 38 43 C29.57765649 42.9669712 22.40028791 41.07812318 14.58447266 38.17138672 C10.75967221 36.78047267 7.32993839 35.83656419 3.26171875 35.5 C-0.6113749 35.16747425 -2.69162496 34.09480063 -6 32 C-9.30782715 30.83562084 -12.68041136 29.92268661 -16.0625 29 C-16.99827881 28.74089844 -17.93405762 28.48179688 -18.89819336 28.21484375 C-20.75404128 27.70337316 -22.6108741 27.19546065 -24.46875 26.69140625 C-26.6203319 26.10370564 -28.76401008 25.49560599 -30.90625 24.875 C-32.46859375 24.441875 -32.46859375 24.441875 -34.0625 24 C-34.94035156 23.7525 -35.81820312 23.505 -36.72265625 23.25 C-39.45336182 22.95023129 -40.70603364 23.55898649 -43 25 C-39.17541601 20.64788718 -34.81316443 17.86299504 -29.90234375 14.82421875 C-27.16441312 13.10333907 -24.51548866 11.30355517 -21.875 9.4375 C-15.26778557 4.77667836 -15.26778557 4.77667836 -12.125 2.625 C-11.07699219 1.90183594 -11.07699219 1.90183594 -10.0078125 1.1640625 C-6.55347862 -0.83864469 -3.77303958 -1.50921583 0 0 Z " fill="#0DBDF0" transform="translate(114,73)"/>
<path d="M0 0 C4.71418801 -1.21414699 8.33493103 -1.52473033 13 0 C17.30776801 4.49607164 20.03732702 10.340554 22.74243164 15.89355469 C24.19419611 18.32528131 25.93607446 20.07443059 28 22 C28.35827881 21.36908447 28.71655762 20.73816895 29.08569336 20.08813477 C30.70129052 17.24530263 32.31936097 14.40388601 33.9375 11.5625 C34.50146484 10.56927734 35.06542969 9.57605469 35.64648438 8.55273438 C36.18466797 7.60849609 36.72285156 6.66425781 37.27734375 5.69140625 C37.77484131 4.81685791 38.27233887 3.94230957 38.78491211 3.04125977 C40 1 40 1 41 0 C43.18639453 -0.07258946 45.37500389 -0.08373783 47.5625 -0.0625 C49.35880859 -0.04896484 49.35880859 -0.04896484 51.19140625 -0.03515625 C52.11824219 -0.02355469 53.04507813 -0.01195313 54 0 C50.81027508 5.13839646 47.59300605 10.21466656 44.05078125 15.1171875 C43.54716064 15.82166016 43.04354004 16.52613281 42.5246582 17.25195312 C41.51862003 18.6528351 40.50040297 20.0450609 39.46948242 21.42773438 C39.00517822 22.07806641 38.54087402 22.72839844 38.0625 23.3984375 C37.64097656 23.97255371 37.21945312 24.54666992 36.78515625 25.13818359 C35.64727561 27.83640429 36.09100858 29.23285922 37 32 C38.67599604 34.90126729 38.67599604 34.90126729 40.81640625 37.8515625 C41.38028297 38.66262955 41.38028297 38.66262955 41.95555115 39.49008179 C43.15008382 41.20732428 44.35506227 42.91681162 45.5625 44.625 C46.77301621 46.34063926 47.98086808 48.05783495 49.18016052 49.78134155 C50.26505934 51.34027989 51.35995145 52.89224946 52.45532227 54.44384766 C54 57 54 57 54 60 C49.57594473 61.34133591 46.3835624 61.58185114 42 60 C37.43114429 55.1087773 34.45140299 48.94349271 31.26171875 43.11132812 C29.81260156 40.6864122 28.16330381 38.81635886 26 37 C25.78085937 37.63292969 25.56171875 38.26585937 25.3359375 38.91796875 C22.11507447 46.34855626 17.80884109 54.28549051 12 60 C7.63534893 61.48279907 4.3983004 61.2633416 0 60 C1.26537374 56.54380179 2.71604686 53.74420697 4.8984375 50.78515625 C5.46046875 50.01623047 6.0225 49.24730469 6.6015625 48.45507812 C7.18679688 47.66552734 7.77203125 46.87597656 8.375 46.0625 C10.08176968 43.74045508 11.78578174 41.41694528 13.47558594 39.08251953 C14.41829233 37.79467751 15.38145829 36.52121434 16.37597656 35.27294922 C17.70295988 33.61611375 17.70295988 33.61611375 19 31 C17.92316541 27.45258887 16.2190652 24.62052976 14.1015625 21.6015625 C13.53953125 20.79203125 12.9775 19.9825 12.3984375 19.1484375 C11.52058594 17.89933594 11.52058594 17.89933594 10.625 16.625 C6.82639604 11.19842292 3.18137758 5.81424179 0 0 Z " fill="#667177" transform="translate(571,93)"/>
<path d="M0 0 C0.74822021 0.00580078 1.49644043 0.01160156 2.26733398 0.01757812 C7.89907588 0.14967241 12.49075838 1.10733093 17.6875 3.375 C17.3575 6.675 17.0275 9.975 16.6875 13.375 C15.470625 12.88 14.25375 12.385 13 11.875 C7.02355014 9.87018136 0.9313268 9.70910711 -5.3125 10.375 C-6.3025 11.035 -7.2925 11.695 -8.3125 12.375 C-8.74053944 16.42746898 -8.74053944 16.42746898 -8.3125 20.375 C-6.22764004 22.85988772 -4.32150518 23.968237 -1.29296875 25.05859375 C-0.12991211 25.49075195 -0.12991211 25.49075195 1.05664062 25.93164062 C1.86294922 26.22232422 2.66925781 26.51300781 3.5 26.8125 C16.67676272 31.56810374 16.67676272 31.56810374 20.0390625 36.26171875 C21.7748208 41.91861778 21.82602824 49.03090551 19.125 54.375 C15.60901103 58.70237105 12.00202655 60.60349115 6.6875 62.375 C-3.53925872 63.31484029 -13.08962974 63.21322702 -22.3125 58.375 C-22.3125 54.745 -22.3125 51.115 -22.3125 47.375 C-18.3125 48.375 -18.3125 48.375 -15.07421875 49.91015625 C-11.0668335 51.6642558 -7.45600893 51.85723343 -3.125 51.8125 C-2.07795898 51.8424707 -2.07795898 51.8424707 -1.00976562 51.87304688 C2.42314282 51.86978055 4.36222983 51.61202653 7.1640625 49.5703125 C9.00307105 47.33126232 9.00307105 47.33126232 8.875 43.8125 C8.02876706 40.17016608 8.02876706 40.17016608 4.875 38.6875 C3.48958175 38.21806076 2.09145784 37.78568154 0.6875 37.375 C-14.16397003 32.68924208 -14.16397003 32.68924208 -19.6875 26.875 C-22.10380425 21.67065239 -22.41160577 17.00330673 -21.3125 11.375 C-16.5880933 2.88731231 -9.34160357 -0.17455115 0 0 Z " fill="#677278" transform="translate(420.3125,91.625)"/>
<path d="M0 0 C0.66 0 1.32 0 2 0 C2.09260216 10.11804608 2.16371516 20.23599166 2.20724869 30.35437489 C2.22814066 35.05256408 2.25648746 39.75046377 2.30175781 44.44848633 C2.34515848 48.98074381 2.36912497 53.51272252 2.37950897 58.04517174 C2.38691078 59.77600177 2.40136458 61.50681622 2.42292023 63.23752785 C2.45187826 65.65844547 2.45595932 68.07820517 2.45410156 70.49926758 C2.46848267 71.21783936 2.48286377 71.93641113 2.49768066 72.67675781 C2.48101807 74.67805481 2.48101807 74.67805481 2 78 C-0.02838135 79.96879578 -0.02838135 79.96879578 -2 81 C-0.02 81.495 -0.02 81.495 2 82 C2.06947615 90.4231034 2.12279887 98.84608732 2.15543652 107.26940632 C2.17110009 111.18060226 2.19235063 115.09160234 2.22631836 119.00268555 C2.25888769 122.77632259 2.2768478 126.5497711 2.28463173 130.32353783 C2.29017965 131.76408036 2.30101336 133.20461246 2.31719017 134.64507484 C2.33892959 136.6608234 2.3402251 138.67676121 2.34057617 140.69262695 C2.35056892 142.41471123 2.35056892 142.41471123 2.36076355 144.17158508 C2 147 2 147 0.47871399 148.89421082 C-0.25324944 149.44157646 -0.25324944 149.44157646 -1 150 C-3 147 -3 147 -3 144 C-3.99 144 -4.98 144 -6 144 C-6.33 142.02 -6.66 140.04 -7 138 C-9.72892283 137.35312193 -12.45812447 136.70746282 -15.1875 136.0625 C-15.95642578 135.88009766 -16.72535156 135.69769531 -17.51757812 135.50976562 C-19.0183206 135.15551311 -20.51985736 134.80460654 -22.0222168 134.45727539 C-23.5479338 134.10452043 -25.0713585 133.74184132 -26.59375 133.375 C-29.85153308 132.86729355 -33.01791754 132.90670951 -36.3125 132.9375 C-38.19388672 132.95103516 -38.19388672 132.95103516 -40.11328125 132.96484375 C-41.06589844 132.97644531 -42.01851562 132.98804688 -43 133 C-45.0390625 129.2734375 -45.0390625 129.2734375 -44.6875 126.8125 C-44 125 -44 125 -43 124 C-40.625 123.75 -40.625 123.75 -38 124 C-37.33291016 124.70189453 -37.33291016 124.70189453 -36.65234375 125.41796875 C-34.52989055 127.45010479 -32.77523175 127.84796323 -29.9375 128.5625 C-28.47570312 128.93375 -28.47570312 128.93375 -26.984375 129.3125 C-23.41097495 130.13569163 -19.82252476 130.84304989 -16.22265625 131.5390625 C-11.55257092 132.5075512 -7.47358618 133.64220003 -4 137 C-2.68 139.31 -1.36 141.62 0 144 C0.33 124.53 0.66 105.06 1 85 C-5.04254693 87.56825678 -5.04254693 87.56825678 -10.49609375 90.78515625 C-11.69274658 91.5735791 -11.69274658 91.5735791 -12.91357422 92.37792969 C-13.74646973 92.93383789 -14.57936523 93.48974609 -15.4375 94.0625 C-17.21929451 95.23682735 -19.00185631 96.40999126 -20.78515625 97.58203125 C-21.66574707 98.16162598 -22.54633789 98.7412207 -23.45361328 99.33837891 C-27.69831624 102.10822055 -32.00208951 104.78028586 -36.31079102 107.44897461 C-39.57281388 109.47297318 -42.8158545 111.51971723 -46.03125 113.6171875 C-47.00118896 114.24898926 -47.00118896 114.24898926 -47.99072266 114.89355469 C-49.21694878 115.69493906 -50.44072518 116.50008863 -51.66162109 117.30957031 C-55.78050003 120 -55.78050003 120 -58 120 C-58 120.66 -58 121.32 -58 122 C-58.99 122 -59.98 122 -61 122 C-61 122.66 -61 123.32 -61 124 C-61.53367188 124.27972656 -62.06734375 124.55945313 -62.6171875 124.84765625 C-68.00365699 127.74591233 -72.92926936 130.99178941 -77.8359375 134.64453125 C-80 136 -80 136 -83 136 C-83 136.66 -83 137.32 -83 138 C-83.66 138 -84.32 138 -85 138 C-86.04449911 134.86650268 -85.93423645 134.01031744 -85 131 C-84.01 131 -83.02 131 -82 131 C-82 130.34 -82 129.68 -82 129 C-80.6105957 127.90258789 -80.6105957 127.90258789 -78.67578125 126.72265625 C-77.97646484 126.29146484 -77.27714844 125.86027344 -76.55664062 125.41601562 C-75.81607422 124.96935547 -75.07550781 124.52269531 -74.3125 124.0625 C-73.59126953 123.61970703 -72.87003906 123.17691406 -72.12695312 122.72070312 C-69.18822672 120.91989453 -66.23783023 119.14106263 -63.2734375 117.3828125 C-60.09234951 115.44792393 -57.05100991 113.32263038 -53.98828125 111.20703125 C-52 110 -52 110 -50 110 C-51.32 108.02 -52.64 106.04 -54 104 C-52.68 104 -51.36 104 -50 104 C-50 81.89 -50 59.78 -50 37 C-49.67 37 -49.34 37 -49 37 C-49 60.43 -49 83.86 -49 108 C-39.8271684 102.26698025 -30.78984593 96.56416059 -21.8359375 90.53125 C-16.98091989 87.29287966 -12.00645519 84.24326706 -7.01367188 81.22265625 C-3.42084226 79.19645737 -3.42084226 79.19645737 -1 76 C-0.34 76 0.32 76 1 76 C0.67 51.91 0.34 27.82 0 3 C-0.99 2.505 -0.99 2.505 -2 2 C-1.34 1.34 -0.68 0.68 0 0 Z " fill="#AEE3F7" transform="translate(203,8)"/>
<path d="M0 0 C0 3.96 0 7.92 0 12 C-1.485 12.061875 -2.97 12.12375 -4.5 12.1875 C-9.79014514 12.40792271 -14.20871194 14.30517993 -18 18 C-19.15689095 21.29367196 -19.0735325 24.43020848 -19 27.89453125 C-19.01087646 28.84188644 -19.02175293 29.78924164 -19.03295898 30.76530457 C-19.0590926 33.78219703 -19.03029062 36.79569831 -19 39.8125 C-19.00809245 41.86134566 -19.01977017 43.91018051 -19.03515625 45.95898438 C-19.06499288 50.97348022 -19.04557641 55.98564538 -19 61 C-22.96 61 -26.92 61 -31 61 C-31 41.2 -31 21.4 -31 1 C-27.7 1 -24.4 1 -21 1 C-20.67 3.64 -20.34 6.28 -20 9 C-19.55269531 8.60167969 -19.10539063 8.20335938 -18.64453125 7.79296875 C-12.2827273 2.21791241 -8.61177753 -0.43788699 0 0 Z " fill="#667177" transform="translate(542,92)"/>
<path d="M0 0 C0.66 0 1.32 0 2 0 C2 0.99 2 1.98 2 3 C3.65 3 5.3 3 7 3 C7.495 5.97 7.495 5.97 8 9 C7.278125 8.79375 6.55625 8.5875 5.8125 8.375 C-0.27637031 7.56315063 -5.31546049 11.97947752 -10.1875 15.1875 C-11.31925659 15.92625366 -11.31925659 15.92625366 -12.47387695 16.67993164 C-18.0621639 20.34291797 -23.55506775 24.1273447 -29 28 C-31.94807995 30.05987638 -34.55310578 31.85103526 -38 33 C-38 34.32 -38 35.64 -38 37 C-37.01 37.33 -36.02 37.66 -35 38 C-36.98 38.495 -36.98 38.495 -39 39 C-39.33 60.78 -39.66 82.56 -40 105 C-40.33 105 -40.66 105 -41 105 C-41.33 82.23 -41.66 59.46 -42 36 C-47.94 39.96 -53.88 43.92 -60 48 C-61.65 48.99 -63.3 49.98 -65 51 C-66.33705478 51.85679408 -67.66927217 52.72119279 -68.99609375 53.59375 C-69.71990234 54.06683594 -70.44371094 54.53992188 -71.18945312 55.02734375 C-72.68541881 56.00732475 -74.18021693 56.98909045 -75.67382812 57.97265625 C-79.68109519 60.58717538 -83.65732374 62.96286502 -88 65 C-88.33 64.01 -88.66 63.02 -89 62 C-90.32 61.67 -91.64 61.34 -93 61 C-93 41.2 -93 21.4 -93 1 C-92.67 1 -92.34 1 -92 1 C-92 20.47 -92 39.94 -92 60 C-84.18653087 55.38089014 -84.18653087 55.38089014 -76.86328125 50.2734375 C-74.68046763 48.78161939 -72.39096547 47.51721748 -70.09008789 46.21826172 C-65.83261641 43.73668449 -61.70997875 41.03480399 -57.5625 38.375 C-50.77846038 34.03556762 -43.97622613 29.73246552 -37.125 25.5 C-32.49719203 22.63622912 -28.06686725 19.64386567 -23.77734375 16.29296875 C-21.11995884 14.35979423 -18.27189178 12.84650899 -15.37890625 11.296875 C-11.87449711 9.38642535 -8.47748319 7.30557665 -5.06640625 5.234375 C-3 4 -3 4 -1 3 C-0.67 2.01 -0.34 1.02 0 0 Z " fill="#D8F5F9" transform="translate(107,65)"/>
<path d="M0 0 C3.63 0 7.26 0 11 0 C11 19.8 11 39.6 11 60 C7.37 60 3.74 60 0 60 C0 40.2 0 20.4 0 0 Z " fill="#667177" transform="translate(550,93)"/>
<path d="M0 0 C0.33 0 0.66 0 1 0 C1 23.43 1 46.86 1 71 C14.01193726 62.88294996 14.01193726 62.88294996 26.7421875 54.3984375 C29 53 29 53 31 53 C30.71125 53.556875 30.4225 54.11375 30.125 54.6875 C28.92476973 56.93356713 28.92476973 56.93356713 28.4765625 59.28515625 C26.15763827 63.54878678 22.34848759 65.31886158 18.25 67.75 C16.52690199 68.80135966 14.80424973 69.85345021 13.08203125 70.90625 C12.22561035 71.42445312 11.36918945 71.94265625 10.48681641 72.4765625 C6.32631353 75.0253096 2.2557403 77.71184951 -1.80957031 80.40917969 C-5.78183831 83 -5.78183831 83 -8 83 C-8 83.66 -8 84.32 -8 85 C-8.99 85 -9.98 85 -11 85 C-11 85.66 -11 86.32 -11 87 C-11.53367188 87.27972656 -12.06734375 87.55945313 -12.6171875 87.84765625 C-18.00365699 90.74591233 -22.92926936 93.99178941 -27.8359375 97.64453125 C-30 99 -30 99 -33 99 C-33 99.66 -33 100.32 -33 101 C-33.66 101 -34.32 101 -35 101 C-36.04449911 97.86650268 -35.93423645 97.01031744 -35 94 C-34.01 94 -33.02 94 -32 94 C-32 93.34 -32 92.68 -32 92 C-30.6105957 90.90258789 -30.6105957 90.90258789 -28.67578125 89.72265625 C-27.97646484 89.29146484 -27.27714844 88.86027344 -26.55664062 88.41601562 C-25.81607422 87.96935547 -25.07550781 87.52269531 -24.3125 87.0625 C-23.59126953 86.61970703 -22.87003906 86.17691406 -22.12695312 85.72070312 C-19.18822672 83.91989453 -16.23783023 82.14106263 -13.2734375 80.3828125 C-10.09234951 78.44792393 -7.05100991 76.32263038 -3.98828125 74.20703125 C-2 73 -2 73 0 73 C-1.32 71.02 -2.64 69.04 -4 67 C-2.68 67 -1.36 67 0 67 C0 44.89 0 22.78 0 0 Z " fill="#E4F2F8" transform="translate(153,45)"/>
<path d="M0 0 C1.51400391 0.01740234 1.51400391 0.01740234 3.05859375 0.03515625 C4.07050781 0.04417969 5.08242188 0.05320312 6.125 0.0625 C7.29869141 0.07990234 7.29869141 0.07990234 8.49609375 0.09765625 C9.71686681 13.42442884 9.71686681 13.42442884 6.8203125 17.39453125 C1.39099598 21.40448349 -3.76042149 22.68109658 -10.50390625 22.09765625 C-13.00390625 21.09765625 -13.00390625 21.09765625 -14.50390625 20.09765625 C-14.50390625 19.43765625 -14.50390625 18.77765625 -14.50390625 18.09765625 C-15.16390625 18.09765625 -15.82390625 18.09765625 -16.50390625 18.09765625 C-16.7772907 12.72109538 -16.89384928 9.53065867 -13.50390625 5.09765625 C-11.30502483 2.89877483 -10.39036567 2.67204585 -7.44140625 2.03515625 C-4.63447414 1.42098123 -2.74057415 0.10688667 0 0 Z " fill="#F5F6F6" transform="translate(475.50390625,122.90234375)"/>
<path d="M0 0 C2.1875 -0.4375 2.1875 -0.4375 5 0 C7.86103704 2.94821546 9.70618976 6.11856929 11 10 C17.60216029 12.58345403 24.78958384 13.3611051 31.8203125 13.7890625 C34 14 34 14 36 15 C36.04254356 16.99954746 36.04080783 19.00041636 36 21 C35 22 35 22 31.4375 22.0625 C30.303125 22.041875 29.16875 22.02125 28 22 C27.505 20.02 27.505 20.02 27 18 C26.32453125 17.87882812 25.6490625 17.75765625 24.953125 17.6328125 C24.06109375 17.46523437 23.1690625 17.29765625 22.25 17.125 C21.36828125 16.96257812 20.4865625 16.80015625 19.578125 16.6328125 C17 16 17 16 14.94921875 14.9453125 C12.68519659 13.84732981 11.06266674 13.80199654 8.5625 13.75 C4.58021084 13.40512855 4.20692583 13.22617474 1.3125 10.0625 C0.1678125 8.5465625 0.1678125 8.5465625 -1 7 C-4.15501165 5.58409628 -4.15501165 5.58409628 -7 5 C-6.67 4.01 -6.34 3.02 -6 2 C-4.02 2 -2.04 2 0 2 C0 1.34 0 0.68 0 0 Z " fill="#D3F6F8" transform="translate(22,61)"/>
<path d="M0 0 C2.91575623 -0.3742218 2.91575623 -0.3742218 6.69702148 -0.37231445 C7.72898651 -0.37779045 7.72898651 -0.37779045 8.78179932 -0.38337708 C11.06181329 -0.39149987 13.34112028 -0.37785754 15.62109375 -0.36328125 C17.20288594 -0.36276279 18.78467878 -0.36327995 20.36647034 -0.36479187 C23.68459673 -0.36470207 27.00248056 -0.35425728 30.32055664 -0.33618164 C34.5756345 -0.31351256 38.83035719 -0.3129461 43.08547878 -0.31969929 C46.35312562 -0.32303998 49.62069137 -0.316407 52.88832283 -0.30657005 C54.45722085 -0.30271809 56.02612789 -0.30156982 57.59502983 -0.3031559 C59.78805609 -0.30352648 61.9806262 -0.29090815 64.17358398 -0.2746582 C66.04650368 -0.26774712 66.04650368 -0.26774712 67.95726013 -0.26069641 C71 0 71 0 74 2 C74 2.66 74 3.32 74 4 C74.66 4 75.32 4 76 4 C76 5.32 76 6.64 76 8 C76.66 8 77.32 8 78 8 C79.7265625 9.64453125 79.7265625 9.64453125 81.625 11.8125 C82.25664063 12.52019531 82.88828125 13.22789063 83.5390625 13.95703125 C85 16 85 16 85 19 C83.29361742 17.29361742 81.58746914 15.58701361 79.8828125 13.87890625 C78.32712368 12.326445 76.7589382 10.78651736 75.1875 9.25 C73 7 73 7 71 4 C67.84736482 3.51995562 67.84736482 3.51995562 64.07177734 3.56762695 C63.00332329 3.55233948 63.00332329 3.55233948 61.9132843 3.53674316 C59.55408988 3.50649972 57.19530068 3.49733033 54.8359375 3.48828125 C53.20210407 3.4714429 51.56828366 3.45329381 49.93447876 3.43388367 C45.63057524 3.38628555 41.3267245 3.35653993 37.02264404 3.33044434 C32.63217746 3.30068807 28.24189292 3.25414093 23.8515625 3.20898438 C15.23446423 3.12283976 6.61734957 3.05554443 -2 3 C-1.34 2.01 -0.68 1.02 0 0 Z " fill="#D7F9FB" transform="translate(17,42)"/>
<path d="M0 0 C3.96 0 7.92 0 12 0 C12 3.96 12 7.92 12 12 C8.04 12 4.08 12 0 12 C0 8.04 0 4.08 0 0 Z " fill="#707B80" transform="translate(550,67)"/>
<path d="M0 0 C2.25 -0.3125 2.25 -0.3125 5 0 C8.26527806 2.91227503 8.96140059 4.41135903 9.25 8.8125 C9.1675 9.864375 9.085 10.91625 9 12 C6.25 12.3125 6.25 12.3125 3 12 C1.62517293 10.36739286 0.29352333 8.69774938 -1 7 C-4.12133744 5.65227097 -4.12133744 5.65227097 -7 5 C-6.67 4.01 -6.34 3.02 -6 2 C-4.02 2 -2.04 2 0 2 C0 1.34 0 0.68 0 0 Z " fill="#D9F6F8" transform="translate(22,61)"/>
<path d="M0 0 C0 23.1 0 46.2 0 70 C-0.33 70 -0.66 70 -1 70 C-1.495 38.32 -1.495 38.32 -2 6 C-3.65 6.33 -5.3 6.66 -7 7 C-7 7.66 -7 8.32 -7 9 C-8.98 9 -10.96 9 -13 9 C-10.68577405 6.51407342 -8.20668694 4.68030653 -5.375 2.8125 C-4.57835937 2.28269531 -3.78171875 1.75289063 -2.9609375 1.20703125 C-1 0 -1 0 0 0 Z " fill="#3C8FE8" transform="translate(66,100)"/>
<path d="M0 0 C0.66 0.33 1.32 0.66 2 1 C-2.75 5.875 -2.75 5.875 -5 7 C-5.40605469 8.2065625 -5.40605469 8.2065625 -5.8203125 9.4375 C-7 12 -7 12 -9.2421875 13.1875 C-10.11101562 13.455625 -10.97984375 13.72375 -11.875 14 C-16.22753298 15.53470816 -18.52161903 16.9444675 -21 21 C-21.99 20.34 -22.98 19.68 -24 19 C-24 18.01 -24 17.02 -24 16 C-23.01 16 -22.02 16 -21 16 C-21 15.34 -21 14.68 -21 14 C-20.34 14 -19.68 14 -19 14 C-19 13.34 -19 12.68 -19 12 C-18.46632813 11.72027344 -17.93265625 11.44054687 -17.3828125 11.15234375 C-11.2624592 7.85921247 -5.62519683 4.07503821 0 0 Z " fill="#248CF0" transform="translate(139,132)"/>
<path d="M0 0 C0.66 0.33 1.32 0.66 2 1 C1.01 1.33 0.02 1.66 -1 2 C-0.67 24.11 -0.34 46.22 0 69 C3.465 68.505 3.465 68.505 7 68 C3.484375 72.6875 3.484375 72.6875 2 74 C0.68 74 -0.64 74 -2 74 C-2 49.91 -2 25.82 -2 1 C-1.34 0.67 -0.68 0.34 0 0 Z " fill="#6DBFF5" transform="translate(17,131)"/>
<path d="M0 0 C0 19.8 0 39.6 0 60 C-1.32 58.68 -2.64 57.36 -4 56 C-3.01 55.505 -3.01 55.505 -2 55 C-1.67 38.5 -1.34 22 -1 5 C-3.97 5 -6.94 5 -10 5 C-5.16129032 0 -5.16129032 0 0 0 Z " fill="#15BDF3" transform="translate(204,93)"/>
<path d="M0 0 C1.44412336 2.88824673 1.0745168 5.33508446 1.02172852 8.56103516 C1.01212097 9.23432358 1.00251343 9.907612 0.99261475 10.6013031 C0.95958733 12.83066137 0.91926946 15.05982596 0.87890625 17.2890625 C0.85460878 18.83319411 0.83076503 20.37733291 0.80735779 21.92147827 C0.74447971 25.98877149 0.67542366 30.05593747 0.60510254 34.12310791 C0.53445268 38.27211708 0.4696157 42.42121658 0.40429688 46.5703125 C0.27523655 54.71364167 0.13965278 62.85684563 0 71 C0.66 71 1.32 71 2 71 C2.33 70.01 2.66 69.02 3 68 C3.99 68 4.98 68 6 68 C6 67.34 6 66.68 6 66 C7.32 66.33 8.64 66.66 10 67 C8.54550599 68.0055761 7.08627557 69.00430435 5.625 70 C4.81289062 70.556875 4.00078125 71.11375 3.1640625 71.6875 C1 73 1 73 -1 73 C-1.02312504 63.62964062 -1.04091591 54.25929099 -1.05181217 44.88890934 C-1.05704065 40.53831541 -1.06413765 36.18774093 -1.07543945 31.8371582 C-1.08626959 27.64209742 -1.0922771 23.44705541 -1.09487724 19.25198174 C-1.09673126 17.64793032 -1.10035144 16.04387997 -1.10573006 14.4398365 C-1.11294219 12.20083485 -1.11399087 9.9619117 -1.11352539 7.72290039 C-1.115746 6.44604874 -1.11796661 5.16919708 -1.12025452 3.85365295 C-1 1 -1 1 0 0 Z " fill="#288BF2" transform="translate(155,43)"/>
<path d="M0 0 C0.33 0 0.66 0 1 0 C1.33 23.76 1.66 47.52 2 72 C1.01 72.495 1.01 72.495 0 73 C-1.32 71.02 -2.64 69.04 -4 67 C-2.68 67 -1.36 67 0 67 C0 44.89 0 22.78 0 0 Z " fill="#B5DCF7" transform="translate(153,45)"/>
<path d="M0 0 C2.3125 -0.1875 2.3125 -0.1875 5 0 C6.02297922 0.97648017 7.01904252 1.98131338 8 3 C10.29019651 4.142525 12.61673372 5.05568695 15 6 C15 6.33 15 6.66 15 7 C10.38 7.33 5.76 7.66 1 8 C-1 4 -1 4 -0.625 1.75 C-0.41875 1.1725 -0.2125 0.595 0 0 Z " fill="#E4F5F9" transform="translate(160,132)"/>
<path d="M0 0 C2.97 0.495 2.97 0.495 6 1 C6 1.99 6 2.98 6 4 C4.68 3.34 3.36 2.68 2 2 C1.67 20.81 1.34 39.62 1 59 C0.67 59 0.34 59 0 59 C0 39.53 0 20.06 0 0 Z " fill="#70D2F4" transform="translate(15,66)"/>
<path d="M0 0 C5.04595231 0.74039492 9.89296966 1.93782371 14.8125 3.25 C15.63403564 3.46744873 16.45557129 3.68489746 17.30200195 3.90893555 C25.57999062 6.11972846 33.79576738 8.53137687 42 11 C38.45270294 12.2298412 36.09203611 11.76361709 32.5 10.8125 C31.44167969 10.53277344 30.38335937 10.25304687 29.29296875 9.96484375 C26.09333403 9.02734698 22.95947799 7.975032 19.8125 6.875 C16.15945786 5.60312931 12.91973372 4.76821824 9.0625 4.5 C5.01558923 4.21303724 2.9137999 2.9137999 0 0 Z " fill="#0B9BF4" transform="translate(108,104)"/>
<path d="M0 0 C0.66 0.99 1.32 1.98 2 3 C4.70310107 3.95129381 4.70310107 3.95129381 7.8125 4.5625 C11.72613286 5.42301306 15.31578069 6.41326599 19 8 C16.22862355 9.88453599 14.92132313 9.99438022 11.5 9.75 C8 9 8 9 6.078125 7.9921875 C3.73072662 6.87143715 1.83222843 6.60284369 -0.75 6.375 C-1.94882812 6.26285156 -1.94882812 6.26285156 -3.171875 6.1484375 C-3.77515625 6.09945312 -4.3784375 6.05046875 -5 6 C-5 5.67 -5 5.34 -5 5 C-3.35 5 -1.7 5 0 5 C0 3.35 0 1.7 0 0 Z " fill="#D3F6F9" transform="translate(31,68)"/>
<path d="M0 0 C4.91403113 1.79551138 6.90167218 5.64906502 9.25 10.1875 C9.25 10.8475 9.25 11.5075 9.25 12.1875 C9.91 12.5175 10.57 12.8475 11.25 13.1875 C10.26 14.1775 9.27 15.1675 8.25 16.1875 C6.25 13.1875 6.25 13.1875 6.25 10.1875 C5.26 10.1875 4.27 10.1875 3.25 10.1875 C2.92 8.2075 2.59 6.2275 2.25 4.1875 C-0.06 3.5275 -2.37 2.8675 -4.75 2.1875 C-2.75 0.1875 -2.75 0.1875 0 0 Z " fill="#BDF0F6" transform="translate(193.75,141.8125)"/>
<path d="M0 0 C1.32 0 2.64 0 4 0 C2.73948004 3.78155989 1.43553394 4.25618367 -1.9375 6.25 C-3.28134766 7.06210938 -3.28134766 7.06210938 -4.65234375 7.890625 C-5.42707031 8.25671875 -6.20179687 8.6228125 -7 9 C-9.53449526 7.73275237 -9.91309755 6.56198435 -11 4 C-11 3.34 -11 2.68 -11 2 C-10.06027344 2.03480469 -10.06027344 2.03480469 -9.1015625 2.0703125 C-7.87566406 2.09738281 -7.87566406 2.09738281 -6.625 2.125 C-5.40683594 2.15980469 -5.40683594 2.15980469 -4.1640625 2.1953125 C-1.78657757 2.21370051 -1.78657757 2.21370051 0 0 Z " fill="#17BBEB" transform="translate(65,90)"/>
<path d="M0 0 C0.66 0.33 1.32 0.66 2 1 C1.01 2.485 1.01 2.485 0 4 C-0.66 4 -1.32 4 -2 4 C-2 4.66 -2 5.32 -2 6 C-2.66 6 -3.32 6 -4 6 C-4.0825 6.61875 -4.165 7.2375 -4.25 7.875 C-5 10 -5 10 -7.0625 11.25 C-7.701875 11.4975 -8.34125 11.745 -9 12 C-9.97827217 8.95648659 -10.18675811 6.99969512 -9 4 C-7.1875 2.98828125 -7.1875 2.98828125 -5 2.3125 C-2.25399382 1.56825097 -2.25399382 1.56825097 0 0 Z " fill="#DFF2F7" transform="translate(38,112)"/>
<path d="M0 0 C0.33 0.99 0.66 1.98 1 3 C1.99 3 2.98 3 4 3 C8.0333905 8.79799884 8.50604984 13.01370081 8 20 C6.68 19.67 5.36 19.34 4 19 C4.99 19 5.98 19 7 19 C6.25640327 13.44946714 6.25640327 13.44946714 5 8 C3.35 8.33 1.7 8.66 0 9 C0 6 0 3 0 0 Z " fill="#20CAF1" transform="translate(196,149)"/>
<path d="M0 0 C-0.36969853 2.65614176 -0.70475592 3.74758254 -2.77734375 5.51953125 C-3.49019531 5.94621094 -4.20304687 6.37289062 -4.9375 6.8125 C-5.64777344 7.25207031 -6.35804687 7.69164063 -7.08984375 8.14453125 C-8.03537109 8.56798828 -8.03537109 8.56798828 -9 9 C-9.66 8.67 -10.32 8.34 -11 8 C-9.36094741 4.48774446 -8.14473403 2.51513031 -4.5 0.875 C-2 0 -2 0 0 0 Z " fill="#E9F9FA" transform="translate(98,76)"/>
<path d="M0 0 C-0.55429688 0.39832031 -1.10859375 0.79664063 -1.6796875 1.20703125 C-2.40414062 1.73683594 -3.12859375 2.26664063 -3.875 2.8125 C-4.59429687 3.33457031 -5.31359375 3.85664063 -6.0546875 4.39453125 C-8.23028655 6.03272777 -8.23028655 6.03272777 -10 9 C-10.99 8.34 -11.98 7.68 -13 7 C-13 6.01 -13 5.02 -13 4 C-12.01 4 -11.02 4 -10 4 C-10 3.34 -10 2.68 -10 2 C-9.34 2 -8.68 2 -8 2 C-8 1.34 -8 0.68 -8 0 C-4.71303767 -0.79953138 -3.28976808 -1.09658936 0 0 Z " fill="#2084EF" transform="translate(128,144)"/>
<path d="M0 0 C1.4800841 0.11362262 2.95910074 0.24122908 4.4375 0.375 C5.26121094 0.44460937 6.08492187 0.51421875 6.93359375 0.5859375 C7.95646484 0.79089844 7.95646484 0.79089844 9 1 C9.33 1.66 9.66 2.32 10 3 C8.79296875 4.51953125 8.79296875 4.51953125 7 6 C4.73828125 6.07421875 4.73828125 6.07421875 2.3125 5.6875 C1.50425781 5.56761719 0.69601563 5.44773437 -0.13671875 5.32421875 C-0.75160156 5.21722656 -1.36648437 5.11023438 -2 5 C-2.33 3.68 -2.66 2.36 -3 1 C-2.67 1.66 -2.34 2.32 -2 3 C-1.34 2.67 -0.68 2.34 0 2 C0 1.34 0 0.68 0 0 Z " fill="#23CAED" transform="translate(35,67)"/>
<path d="M0 0 C0.66 0.33 1.32 0.66 2 1 C0.33333333 2.66666667 -1.33333333 4.33333333 -3 6 C-3.495 6.556875 -3.99 7.11375 -4.5 7.6875 C-7.90599984 10.66774986 -12.7672647 11.62190014 -17 13 C-14.79590122 9.69385184 -13.70896294 9.19830728 -10.1875 7.625 C-5.89332152 5.58044903 -3.08161297 3.59521514 0 0 Z " fill="#C2EBF7" transform="translate(41,186)"/>
<path d="M0 0 C0.55171875 0.23589844 1.1034375 0.47179687 1.671875 0.71484375 C0.859375 2.65234375 0.859375 2.65234375 -0.328125 4.71484375 C-1.318125 5.04484375 -2.308125 5.37484375 -3.328125 5.71484375 C-3.658125 5.38484375 -3.988125 5.05484375 -4.328125 4.71484375 C-4.905625 5.23046875 -5.483125 5.74609375 -6.078125 6.27734375 C-8.328125 7.71484375 -8.328125 7.71484375 -10.46875 7.3046875 C-11.08234375 7.11003906 -11.6959375 6.91539063 -12.328125 6.71484375 C-10.75638425 5.51204214 -9.17024942 4.328031 -7.578125 3.15234375 C-6.69640625 2.49105469 -5.8146875 1.82976562 -4.90625 1.1484375 C-2.328125 -0.28515625 -2.328125 -0.28515625 0 0 Z " fill="#2C7EEE" transform="translate(39.328125,118.28515625)"/>
<path d="M0 0 C2.475 0.495 2.475 0.495 5 1 C5 2.32 5 3.64 5 5 C5.66 5 6.32 5 7 5 C8.7265625 6.64453125 8.7265625 6.64453125 10.625 8.8125 C11.25664063 9.52019531 11.88828125 10.22789063 12.5390625 10.95703125 C14 13 14 13 14 16 C12.29295928 14.29295928 10.58640236 12.58548699 8.8828125 10.875 C7.33648016 9.33508397 5.76529116 7.82016711 4.1875 6.3125 C2.2284966 4.24155355 1.06593215 2.61637891 0 0 Z " fill="#BCF3F9" transform="translate(88,45)"/>
<path d="M0 0 C0.66 0.33 1.32 0.66 2 1 C0.81370736 2.51749109 -0.40004753 4.01354082 -1.625 5.5 C-2.29789063 6.3353125 -2.97078125 7.170625 -3.6640625 8.03125 C-6 10 -6 10 -9.2734375 10.28125 C-10.62308594 10.14203125 -10.62308594 10.14203125 -12 10 C-8.29909479 6.0747975 -4.45040344 3.05419844 0 0 Z " fill="#28A3F1" transform="translate(177,27)"/>
<path d="M0 0 C0.66 0 1.32 0 2 0 C2 1.98 2 3.96 2 6 C2.66 6 3.32 6 4 6 C4.125 8.375 4.125 8.375 4 11 C2 13 2 13 -0.6015625 13.1953125 C-1.59929687 13.17210937 -2.59703125 13.14890625 -3.625 13.125 C-5.12933594 13.09792969 -5.12933594 13.09792969 -6.6640625 13.0703125 C-7.43492187 13.04710937 -8.20578125 13.02390625 -9 13 C-9 12.67 -9 12.34 -9 12 C-5.7 12 -2.4 12 1 12 C0.67 8.04 0.34 4.08 0 0 Z " fill="#D1F6FA" transform="translate(203,158)"/>
<path d="M0 0 C-0.33 1.32 -0.66 2.64 -1 4 C-2.65 4.33 -4.3 4.66 -6 5 C-6 5.66 -6 6.32 -6 7 C-7.98 7 -9.96 7 -12 7 C-8.73553653 3.37281837 -5.00324719 0 0 0 Z " fill="#2479E4" transform="translate(65,102)"/>
<path d="M0 0 C0.33 0 0.66 0 1 0 C1.33 1.98 1.66 3.96 2 6 C5.465 5.505 5.465 5.505 9 5 C5.484375 9.6875 5.484375 9.6875 4 11 C2.68 11 1.36 11 0 11 C0 7.37 0 3.74 0 0 Z " fill="#70CBF1" transform="translate(15,194)"/>
<path d="M0 0 C2.97 0.495 2.97 0.495 6 1 C6 1.99 6 2.98 6 4 C4.68 3.34 3.36 2.68 2 2 C1.67 7.94 1.34 13.88 1 20 C0.67 20 0.34 20 0 20 C0 13.4 0 6.8 0 0 Z " fill="#61DFF6" transform="translate(15,66)"/>
<path d="M0 0 C0 0.99 0 1.98 0 3 C-0.66 3.66 -1.32 4.32 -2 5 C-3.32 5 -4.64 5 -6 5 C-6.33 5.99 -6.66 6.98 -7 8 C-8.65 8.33 -10.3 8.66 -12 9 C-8.32442148 4.99027798 -4.81033104 2.54664585 0 0 Z " fill="#CFF1F8" transform="translate(57,176)"/>
<path d="M0 0 C2.53910197 0.38520564 3.72751123 0.70097943 5.484375 2.62890625 C6.65625 4.41927083 7.828125 6.20963542 9 8 C6.36 7.34 3.72 6.68 1 6 C0.67 4.02 0.34 2.04 0 0 Z " fill="#20B6F5" transform="translate(143,108)"/>
<path d="M0 0 C0 0.66 0 1.32 0 2 C-1.53125 3.2890625 -1.53125 3.2890625 -3.5 4.625 C-4.1496875 5.07101563 -4.799375 5.51703125 -5.46875 5.9765625 C-5.9740625 6.31429687 -6.479375 6.65203125 -7 7 C-7.33 6.01 -7.66 5.02 -8 4 C-7.01 4 -6.02 4 -5 4 C-5 3.34 -5 2.68 -5 2 C-2 0 -2 0 0 0 Z M-8 7 C-6.32457024 7.28604898 -4.65614657 7.61781233 -3 8 C-3.99 8.33 -4.98 8.66 -6 9 C-6 9.66 -6 10.32 -6 11 C-6.66 11 -7.32 11 -8 11 C-8.33 10.01 -8.66 9.02 -9 8 C-8.67 7.67 -8.34 7.34 -8 7 Z " fill="#C8E4F5" transform="translate(126,135)"/>
<path d="M0 0 C-9.03571429 6.16071429 -9.03571429 6.16071429 -12.25 5.625 C-12.8275 5.41875 -13.405 5.2125 -14 5 C-13.01 5 -12.02 5 -11 5 C-11 4.34 -11 3.68 -11 3 C-3.88372093 -1.94186047 -3.88372093 -1.94186047 0 0 Z " fill="#369CEF" transform="translate(156,125)"/>
<path d="M0 0 C0 1.32 0 2.64 0 4 C-1.60875 3.938125 -1.60875 3.938125 -3.25 3.875 C-6.65747485 3.9885825 -8.20739631 4.21273364 -11 6 C-5.15384615 0 -5.15384615 0 0 0 Z " fill="#29B1EF" transform="translate(82,92)"/>
<path d="M0 0 C0.66 0.99 1.32 1.98 2 3 C4.87116002 4.02110539 4.87116002 4.02110539 8.125 4.6875 C9.22070312 4.93886719 10.31640625 5.19023438 11.4453125 5.44921875 C12.28835937 5.63097656 13.13140625 5.81273438 14 6 C10.03330137 7.16413981 7.09328146 6.61399222 3 6 C0.32598469 5.9157053 -2.32365144 5.95304652 -5 6 C-5 5.67 -5 5.34 -5 5 C-3.35 5 -1.7 5 0 5 C0 3.35 0 1.7 0 0 Z " fill="#A9ECF7" transform="translate(31,68)"/>
<path d="M0 0 C0.66 0.66 1.32 1.32 2 2 C-1.3 4.31 -4.6 6.62 -8 9 C-8.33 8.01 -8.66 7.02 -9 6 C-6 4 -6 4 -3 4 C-2.67 3.01 -2.34 2.02 -2 1 C-1.34 0.67 -0.68 0.34 0 0 Z " fill="#209DF2" transform="translate(60,171)"/>
<path d="M0 0 C0.66 0 1.32 0 2 0 C2.33 1.32 2.66 2.64 3 4 C1.02 5.32 -0.96 6.64 -3 8 C-2.45276317 4.62537285 -1.9451 2.91765 0 0 Z " fill="#EDF8FA" transform="translate(184,98)"/>
<path d="M0 0 C0.33 1.65 0.66 3.3 1 5 C0.67 4.34 0.34 3.68 0 3 C-1.66321482 2.64984951 -3.33034549 2.31802943 -5 2 C-5.99 1.34 -6.98 0.68 -8 0 C-5.13822943 -1.43088528 -3.06624227 -0.59991697 0 0 Z " fill="#D0F2F6" transform="translate(197,143)"/>
<path d="M0 0 C1.32 0.33 2.64 0.66 4 1 C2.54550599 2.0055761 1.08627557 3.00430435 -0.375 4 C-1.59316406 4.8353125 -1.59316406 4.8353125 -2.8359375 5.6875 C-5 7 -5 7 -7 7 C-6.67 5.68 -6.34 4.36 -6 3 C-6 3.66 -6 4.32 -6 5 C-5.34 5 -4.68 5 -4 5 C-3.67 4.01 -3.34 3.02 -3 2 C-2.01 2 -1.02 2 0 2 C0 1.34 0 0.68 0 0 Z " fill="#2D8EE7" transform="translate(161,109)"/>
<path d="M0 0 C2.31 0.66 4.62 1.32 7 2 C7.33 3.98 7.66 5.96 8 8 C6.85073734 7.04578192 5.70569459 6.08647955 4.5625 5.125 C3.92441406 4.59132813 3.28632813 4.05765625 2.62890625 3.5078125 C1 2 1 2 0 0 Z " fill="#BFF3FA" transform="translate(134,96)"/>
<path d="M0 0 C0.99 0.495 0.99 0.495 2 1 C1.01 1.495 1.01 1.495 0 2 C0 1.34 0 0.68 0 0 Z M-2 2 C-1.34 2.33 -0.68 2.66 0 3 C-0.66 4.65 -1.32 6.3 -2 8 C-3.65 8 -5.3 8 -7 8 C-5.35 6.02 -3.7 4.04 -2 2 Z " fill="#F5FBF9" transform="translate(126,135)"/>
<path d="M0 0 C0.33 0 0.66 0 1 0 C1.04898437 0.92683594 1.09796875 1.85367188 1.1484375 2.80859375 C1.22320313 4.00613281 1.29796875 5.20367187 1.375 6.4375 C1.44460937 7.63246094 1.51421875 8.82742187 1.5859375 10.05859375 C1.72257812 11.02925781 1.85921875 11.99992187 2 13 C2.66 13.33 3.32 13.66 4 14 C2.02 14.99 2.02 14.99 0 16 C0 10.72 0 5.44 0 0 Z " fill="#20B0EB" transform="translate(16,109)"/>
<path d="M0 0 C2 1 2 1 2 1 Z M-2 2 C-1.67 2.66 -1.34 3.32 -1 4 C-0.34 4 0.32 4 1 4 C0.67 4.99 0.34 5.98 0 7 C-0.66 6.67 -1.32 6.34 -2 6 C-2.99 6.33 -3.98 6.66 -5 7 C-5 5.68 -5 4.36 -5 3 C-4.01 2.67 -3.02 2.34 -2 2 Z " fill="#0A6AF0" transform="translate(49,112)"/>
<path d="M0 0 C4.54805635 -0.17835515 7.8794254 0.00214565 12 2 C12 2.33 12 2.66 12 3 C10.56344146 3.08131463 9.1255517 3.13933559 7.6875 3.1875 C6.48673828 3.23970703 6.48673828 3.23970703 5.26171875 3.29296875 C2.52148416 2.93801608 1.70828921 2.10633718 0 0 Z " fill="#D2F0F7" transform="translate(176,139)"/>
<path d="M0 0 C0.66 0.33 1.32 0.66 2 1 C1.01 2.485 1.01 2.485 0 4 C-3.625 4.6875 -3.625 4.6875 -7 5 C-6.67 4.01 -6.34 3.02 -6 2 C-4.0625 1.25 -4.0625 1.25 -2 1 C-1.34 1.33 -0.68 1.66 0 2 C0 1.34 0 0.68 0 0 Z " fill="#0A6DF0" transform="translate(59,107)"/>
<path d="M0 0 C0.66 0.33 1.32 0.66 2 1 C-0.25 3.5625 -0.25 3.5625 -3 6 C-4.32 5.67 -5.64 5.34 -7 5 C-4.69 3.35 -2.38 1.7 0 0 Z " fill="#519FED" transform="translate(139,132)"/>
<path d="M0 0 C0.66 0.33 1.32 0.66 2 1 C1.01 2.485 1.01 2.485 0 4 C-0.66 4 -1.32 4 -2 4 C-2 4.66 -2 5.32 -2 6 C-2.66 6 -3.32 6 -4 6 C-4.33 6.66 -4.66 7.32 -5 8 C-5.33 7.01 -5.66 6.02 -6 5 C-4.60210322 2.20420645 -2.7371003 1.40192942 0 0 Z " fill="#F6FCFA" transform="translate(38,112)"/>
<path d="M0 0 C-1.28524261 0.86380259 -2.57842419 1.71580369 -3.875 2.5625 C-4.59429687 3.03816406 -5.31359375 3.51382813 -6.0546875 4.00390625 C-6.69664063 4.33261719 -7.33859375 4.66132812 -8 5 C-8.66 4.67 -9.32 4.34 -10 4 C-4.75 -1.425 -4.75 -1.425 0 0 Z " fill="#22B6E9" transform="translate(55,101)"/>
<path d="M0 0 C-0.33 1.65 -0.66 3.3 -1 5 C-3.31 5 -5.62 5 -8 5 C-3.16129032 0 -3.16129032 0 0 0 Z " fill="#33C5F3" transform="translate(202,93)"/>
<path d="M0 0 C0.66 0.33 1.32 0.66 2 1 C-0.25 3.5625 -0.25 3.5625 -3 6 C-4.32 5.67 -5.64 5.34 -7 5 C-4.69 3.35 -2.38 1.7 0 0 Z " fill="#A6EAF4" transform="translate(98,72)"/>
<path d="M0 0 C3.37705625 0.53725895 6.696686 1.11064623 10 2 C10 2.66 10 3.32 10 4 C6.39703406 4.41176754 5.21597933 4.1535853 2.1875 2 C1.465625 1.34 0.74375 0.68 0 0 Z " fill="#0D8EEF" transform="translate(108,104)"/>
<path d="M0 0 C2.475 0.495 2.475 0.495 5 1 C5 1.99 5 2.98 5 4 C3.35 4 1.7 4 0 4 C0 2.68 0 1.36 0 0 Z " fill="#1B71E5" transform="translate(69,98)"/>
<path d="M0 0 C-2.64 1.65 -5.28 3.3 -8 5 C-7 1 -7 1 -5.125 -0.3125 C-3 -1 -3 -1 0 0 Z " fill="#1ED0E8" transform="translate(98,73)"/>
<path d="M0 0 C3.36591866 1.44253657 5.51047079 3.33264727 8 6 C7.01 6.33 6.02 6.66 5 7 C3.35 4.69 1.7 2.38 0 0 Z " fill="#1D97ED" transform="translate(127,162)"/>
<path d="M0 0 C1.125 1.75 1.125 1.75 2 4 C1.125 6.25 1.125 6.25 0 8 C-0.268125 7.401875 -0.53625 6.80375 -0.8125 6.1875 C-1.98493467 4.02775192 -3.19369282 2.64209744 -5 1 C-2.525 1.495 -2.525 1.495 0 2 C0 1.34 0 0.68 0 0 Z " fill="#36C7F3" transform="translate(199,140)"/>
<path d="M0 0 C0.66 0.33 1.32 0.66 2 1 C0.8125 3 0.8125 3 -1 5 C-3.6875 5.25 -3.6875 5.25 -6 5 C-4.06745228 2.9754262 -2.36841312 1.57894208 0 0 Z " fill="#47CEEC" transform="translate(102,76)"/>
<path d="M0 0 C1.32 0.33 2.64 0.66 4 1 C3.34 1.66 2.68 2.32 2 3 C1.54188325 4.97235333 1.54188325 4.97235333 1.375 7.125 C1.25125 8.40375 1.1275 9.6825 1 11 C0.67 11 0.34 11 0 11 C0 7.37 0 3.74 0 0 Z " fill="#9FA6A9" transform="translate(398,139)"/>
<path d="M0 0 C-3.96 1.98 -3.96 1.98 -8 4 C-8 2.68 -8 1.36 -8 0 C-4.71303767 -0.79953138 -3.28976808 -1.09658936 0 0 Z " fill="#23B4F3" transform="translate(36,113)"/>
<path d="M0 0 C1.7074998 1.28062485 3.37373596 2.61767557 5 4 C5 4.66 5 5.32 5 6 C3.35 5.67 1.7 5.34 0 5 C0 3.35 0 1.7 0 0 Z " fill="#CBE8F5" transform="translate(72,104)"/>
<path d="M0 0 C-5.75 4 -5.75 4 -8 4 C-8 3.01 -8 2.02 -8 1 C-4.93251126 -0.86240388 -3.40254489 -1.2151946 0 0 Z " fill="#2487EF" transform="translate(190,94)"/>
<path d="M0 0 C-0.6875 1.9375 -0.6875 1.9375 -2 4 C-4.625 4.75 -4.625 4.75 -7 5 C-2.25 0 -2.25 0 0 0 Z " fill="#30B2F1" transform="translate(190,19)"/>
</svg>
